,
.   http://www.scenetime.com/signup.php  ---&gt;  Hottest scene tracker on the net !!! 
Scenetime lucky draw is started , join now and be the winner . offer is limited 

    Join Now   http://www.scenetime.com/signup.php

    seed back for speed


 



...................................NFO:.................................................[center][img]http://lookpic.com/O/i2/332/lGtMgErI.jpeg[/img][/center]
[img]http://lookpic.com/O/i2/298/l4OrvnSi.png[/img]
http://www.imdb.com/title/tt1625346/
[b]Source=26K Big Thx :)

Young Adult 2011 CaM XviD-INFERNO

Work done: 
Video was decent but had a flicker at times
so removed that as much as possible.(check the 2 
provided samples for the result) Played with colors a
alittle and brightened up slightly.Dark scenes are still pretty
dark.
Audio was good for a cam just removed some noise above
6.69Khz and dropped the frequencies below 141hz a couple db.

2 Samples included (one from source)

Format                           : AVI
Format/Info                      : Audio Video Interleave
File size                        : 863 MiB
Duration                         : 1h 28mn
Overall bit rate                 : 1 360 Kbps
Writing application              : VirtualDubMod 1.5.10.2 (build 2542/release)
Writing library                  : VirtualDubMod build 2542/release

Video
ID                               : 0
Format                           : MPEG-4 Visual
Format profile                   : Advanced Simple@L5
Format settings, BVOP            : 2
Format settings, QPel            : No
Format settings, GMC             : No warppoints
Format settings, Matrix          : Default (H.263)
Muxing mode                      : Packed bitstream
Codec ID                         : XVID
Codec ID/Hint                    : XviD
Duration                         : 1h 28mn
Bit rate                         : 1 212 Kbps
Width                            : 608 pixels
Height                           : 288 pixels
Display aspect ratio             : 2.2:1
Frame rate                       : 59.940 fps
Color space                      : YUV
Chroma subsampling               : 4:2:0
Bit depth                        : 8 bits
Scan type                        : Progressive
Compression mode                 : Lossy
Bits/(Pixel*Frame)               : 0.115
Stream size                      : 769 MiB (89%)
Writing library                  : XviD 64

Audio
ID                               : 1
Format                           : MPEG Audio
Format version                   : Version 1
Format profile                   : Layer 3
Codec ID                         : 55
Codec ID/Hint                    : MP3
Duration                         : 1h 28mn
Bit rate mode                    : Constant
Bit rate                         : 128 Kbps
Channel(s)                       : 2 channels
Sampling rate                    : 48.0 KHz
Compression mode                 : Lossy
Stream size                      : 81.2 MiB (9%)
Alignment                        : Aligned on interleaves
Interleave, duration             : 24 ms (1.44 video frame)
Interleave, preload duration     : 504 ms[/b]


[IMG]http://lookpic.com/O/i2/1964/WcslQxoJ.png[/IMG]
[center][img]http://lookpic.com/O/i2/1066/dj70MWeP.png[/img][/center]
[center][img]http://lookpic.com/O/i2/546/oPomBw2t.png[/img][/center]
[center][img]http://lookpic.com/O/i2/1463/zdNCdRvg.png[/img][/center]
[center][img]http://lookpic.com/O/i2/93/VeE6ngas.png[/img][/center]